<?xml version="1.0" encoding="UTF-8" standalone="no"?><!DOCTYPE svg PUBLIC "-//W3C//DTD SVG 1.1//EN" "http://www.w3.org/Graphics/SVG/1.1/DTD/svg11.dtd"><!-- Generated by graphviz version 2.40.1 (20161225.0304)
 --><!-- Title: G Pages: 1 --><svg xmlns="http://www.w3.org/2000/svg" xmlns:xlink="http://www.w3.org/1999/xlink" width="580pt" height="332pt" viewBox="0.00 0.00 579.94 332.00">
<g id="graph0" class="graph" transform="scale(1 1) rotate(0) translate(4 328)">
<title>G</title>
<polygon fill="#ffffff" stroke="transparent" points="-4,4 -4,-328 575.943,-328 575.943,4 -4,4"/>
<!-- :app -->
<g id="node1" class="node">
<title>:app</title>
<ellipse fill="none" stroke="#000000" cx="367.2573" cy="-306" rx="27.8286" ry="18"/>
<text text-anchor="middle" x="367.2573" y="-301.8" font-family="Times,serif" font-size="14.00" fill="#000000">:app</text>
</g>
<!-- :feature:search -->
<g id="node2" class="node">
<title>:feature:search</title>
<ellipse fill="none" stroke="#000000" cx="454.2573" cy="-234" rx="67.7297" ry="18"/>
<text text-anchor="middle" x="454.2573" y="-229.8" font-family="Times,serif" font-size="14.00" fill="#000000">:feature:search</text>
</g>
<!-- :app&#45;&gt;:feature:search -->
<g id="edge1" class="edge">
<title>:app-&gt;:feature:search</title>
<path fill="none" stroke="#000000" d="M384.4457,-291.7751C396.2022,-282.0456 412.0658,-268.9171 425.7,-257.6336"/>
<polygon fill="#000000" stroke="#000000" points="427.9496,-260.315 433.4221,-251.2429 423.4866,-254.9223 427.9496,-260.315"/>
</g>
<!-- :feature:foodDetails -->
<g id="node3" class="node">
<title>:feature:foodDetails</title>
<ellipse fill="none" stroke="#000000" cx="88.2573" cy="-234" rx="88.0153" ry="18"/>
<text text-anchor="middle" x="88.2573" y="-229.8" font-family="Times,serif" font-size="14.00" fill="#000000">:feature:foodDetails</text>
</g>
<!-- :app&#45;&gt;:feature:foodDetails -->
<g id="edge2" class="edge">
<title>:app-&gt;:feature:foodDetails</title>
<path fill="none" stroke="#000000" d="M341.5097,-299.3555C298.9569,-288.3741 212.71,-266.1168 152.76,-250.6459"/>
<polygon fill="#000000" stroke="#000000" points="153.5616,-247.2381 143.0043,-248.1282 151.8124,-254.0161 153.5616,-247.2381"/>
</g>
<!-- :feature:savedItems -->
<g id="node4" class="node">
<title>:feature:savedItems</title>
<ellipse fill="none" stroke="#000000" cx="281.2573" cy="-234" rx="86.7894" ry="18"/>
<text text-anchor="middle" x="281.2573" y="-229.8" font-family="Times,serif" font-size="14.00" fill="#000000">:feature:savedItems</text>
</g>
<!-- :app&#45;&gt;:feature:savedItems -->
<g id="edge3" class="edge">
<title>:app-&gt;:feature:savedItems</title>
<path fill="none" stroke="#000000" d="M350.2665,-291.7751C338.8348,-282.2044 323.4747,-269.3448 310.1481,-258.1876"/>
<polygon fill="#000000" stroke="#000000" points="312.0808,-255.241 302.1664,-251.5053 307.5872,-260.6084 312.0808,-255.241"/>
</g>
<!-- :domain -->
<g id="node5" class="node">
<title>:domain</title>
<ellipse fill="none" stroke="#000000" cx="372.2573" cy="-18" rx="42.8771" ry="18"/>
<text text-anchor="middle" x="372.2573" y="-13.8" font-family="Times,serif" font-size="14.00" fill="#000000">:domain</text>
</g>
<!-- :app&#45;&gt;:domain -->
<g id="edge4" class="edge">
<title>:app-&gt;:domain</title>
<path fill="none" stroke="#000000" d="M394.012,-301.0944C436.1711,-292.7595 514.9595,-274.5249 531.2573,-252 553.8196,-220.8171 611.7635,-187.4981 527.2573,-72 514.3162,-54.3129 460.9683,-38.3853 420.4424,-28.4882"/>
<polygon fill="#000000" stroke="#000000" points="421.2487,-25.0824 410.7094,-26.1654 419.6238,-31.8912 421.2487,-25.0824"/>
</g>
<!-- :core:common&#45;ui -->
<g id="node6" class="node">
<title>:core:common-ui</title>
<ellipse fill="none" stroke="#000000" cx="315.2573" cy="-162" rx="77.5878" ry="18"/>
<text text-anchor="middle" x="315.2573" y="-157.8" font-family="Times,serif" font-size="14.00" fill="#000000">:core:common-ui</text>
</g>
<!-- :feature:search&#45;&gt;:core:common&#45;ui -->
<g id="edge5" class="edge">
<title>:feature:search-&gt;:core:common-ui</title>
<path fill="none" stroke="#000000" d="M423.063,-217.8418C403.4006,-207.657 377.7897,-194.3909 356.4643,-183.3446"/>
<polygon fill="#000000" stroke="#000000" points="357.801,-180.0954 347.3117,-178.6037 354.5814,-186.311 357.801,-180.0954"/>
</g>
<!-- :core:data -->
<g id="node7" class="node">
<title>:core:data</title>
<ellipse fill="none" stroke="#000000" cx="130.2573" cy="-162" rx="49.2125" ry="18"/>
<text text-anchor="middle" x="130.2573" y="-157.8" font-family="Times,serif" font-size="14.00" fill="#000000">:core:data</text>
</g>
<!-- :feature:search&#45;&gt;:core:data -->
<g id="edge6" class="edge">
<title>:feature:search-&gt;:core:data</title>
<path fill="none" stroke="#000000" d="M403.3361,-221.9873C394.6402,-219.9671 385.6931,-217.908 377.2573,-216 310.1671,-200.8254 232.6618,-183.9946 182.6307,-173.2212"/>
<polygon fill="#000000" stroke="#000000" points="183.2063,-169.765 172.6938,-171.0833 181.7339,-176.6084 183.2063,-169.765"/>
</g>
<!-- :core:testing -->
<g id="node8" class="node">
<title>:core:testing</title>
<ellipse fill="none" stroke="#000000" cx="459.2573" cy="-90" rx="58.5425" ry="18"/>
<text text-anchor="middle" x="459.2573" y="-85.8" font-family="Times,serif" font-size="14.00" fill="#000000">:core:testing</text>
</g>
<!-- :feature:search&#45;&gt;:core:testing -->
<g id="edge7" class="edge">
<title>:feature:search-&gt;:core:testing</title>
<path fill="none" stroke="#000000" d="M454.8906,-215.7623C455.7434,-191.201 457.2695,-147.2474 458.2728,-118.3541"/>
<polygon fill="#000000" stroke="#000000" points="461.78,-118.2051 458.6292,-108.0896 454.7842,-117.9621 461.78,-118.2051"/>
</g>
<!-- :feature:foodDetails&#45;&gt;:core:common&#45;ui -->
<g id="edge8" class="edge">
<title>:feature:foodDetails-&gt;:core:common-ui</title>
<path fill="none" stroke="#000000" d="M136.1208,-218.8186C172.1815,-207.3809 221.7101,-191.6713 259.5499,-179.6693"/>
<polygon fill="#000000" stroke="#000000" points="260.9224,-182.9059 269.3963,-176.5462 258.806,-176.2335 260.9224,-182.9059"/>
</g>
<!-- :feature:foodDetails&#45;&gt;:core:data -->
<g id="edge9" class="edge">
<title>:feature:foodDetails-&gt;:core:data</title>
<path fill="none" stroke="#000000" d="M98.8557,-215.8314C103.6673,-207.5829 109.4536,-197.6635 114.7411,-188.5992"/>
<polygon fill="#000000" stroke="#000000" points="117.7923,-190.3148 119.8078,-179.9134 111.7458,-186.7876 117.7923,-190.3148"/>
</g>
<!-- :feature:savedItems&#45;&gt;:core:common&#45;ui -->
<g id="edge10" class="edge">
<title>:feature:savedItems-&gt;:core:common-ui</title>
<path fill="none" stroke="#000000" d="M289.8369,-215.8314C293.6509,-207.7547 298.2214,-198.0761 302.4285,-189.1668"/>
<polygon fill="#000000" stroke="#000000" points="305.6929,-190.4504 306.7982,-179.9134 299.3632,-187.4614 305.6929,-190.4504"/>
</g>
<!-- :feature:savedItems&#45;&gt;:core:data -->
<g id="edge11" class="edge">
<title>:feature:savedItems-&gt;:core:data</title>
<path fill="none" stroke="#000000" d="M246.6148,-217.4817C223.7084,-206.5595 193.6215,-192.2134 169.7808,-180.8457"/>
<polygon fill="#000000" stroke="#000000" points="171.1812,-177.6359 160.6484,-176.4911 168.1683,-183.9544 171.1812,-177.6359"/>
</g>
<!-- :core:common&#45;ui&#45;&gt;:domain -->
<g id="edge12" class="edge">
<title>:core:common-ui-&gt;:domain</title>
<path fill="none" stroke="#000000" d="M330.6217,-144.1301C338.49,-134.1099 347.5829,-121.0332 353.2573,-108 361.8369,-88.2941 366.6468,-64.4331 369.2794,-46.2324"/>
<polygon fill="#000000" stroke="#000000" points="372.7592,-46.6147 370.5899,-36.2443 365.8186,-45.704 372.7592,-46.6147"/>
</g>
<!-- :core:data&#45;&gt;:domain -->
<g id="edge13" class="edge">
<title>:core:data-&gt;:domain</title>
<path fill="none" stroke="#000000" d="M98.6221,-148.0736C82.4965,-139.1433 64.4008,-125.8503 55.2573,-108 47.9629,-93.7595 44.9372,-84.2268 55.2573,-72 72.1693,-51.9634 234.9715,-32.254 320.436,-23.1816"/>
<polygon fill="#000000" stroke="#000000" points="320.8805,-26.6543 330.4601,-22.1287 320.1492,-19.6926 320.8805,-26.6543"/>
</g>
<!-- :core:network -->
<g id="node9" class="node">
<title>:core:network</title>
<ellipse fill="none" stroke="#000000" cx="129.2573" cy="-90" rx="64.8254" ry="18"/>
<text text-anchor="middle" x="129.2573" y="-85.8" font-family="Times,serif" font-size="14.00" fill="#000000">:core:network</text>
</g>
<!-- :core:data&#45;&gt;:core:network -->
<g id="edge14" class="edge">
<title>:core:data-&gt;:core:network</title>
<path fill="none" stroke="#000000" d="M130.005,-143.8314C129.898,-136.131 129.7708,-126.9743 129.652,-118.4166"/>
<polygon fill="#000000" stroke="#000000" points="133.1517,-118.3637 129.513,-108.4133 126.1524,-118.4609 133.1517,-118.3637"/>
</g>
<!-- :core:database -->
<g id="node10" class="node">
<title>:core:database</title>
<ellipse fill="none" stroke="#000000" cx="278.2573" cy="-90" rx="66.0281" ry="18"/>
<text text-anchor="middle" x="278.2573" y="-85.8" font-family="Times,serif" font-size="14.00" fill="#000000">:core:database</text>
</g>
<!-- :core:data&#45;&gt;:core:database -->
<g id="edge15" class="edge">
<title>:core:data-&gt;:core:database</title>
<path fill="none" stroke="#000000" d="M159.8516,-147.6028C181.9176,-136.868 212.3428,-122.0665 236.8261,-110.1557"/>
<polygon fill="#000000" stroke="#000000" points="238.4276,-113.2689 245.8888,-105.7468 235.3653,-106.9742 238.4276,-113.2689"/>
</g>
<!-- :core:testing&#45;&gt;:domain -->
<g id="edge16" class="edge">
<title>:core:testing-&gt;:domain</title>
<path fill="none" stroke="#000000" d="M438.6395,-72.937C427.0157,-63.3173 412.3445,-51.1756 399.7525,-40.7547"/>
<polygon fill="#000000" stroke="#000000" points="401.7664,-37.8782 391.8309,-34.1989 397.3034,-43.271 401.7664,-37.8782"/>
</g>
<!-- :core:network&#45;&gt;:domain -->
<g id="edge17" class="edge">
<title>:core:network-&gt;:domain</title>
<path fill="none" stroke="#000000" d="M173.5447,-76.8778C217.233,-63.9331 283.6633,-44.2501 327.5103,-31.2584"/>
<polygon fill="#000000" stroke="#000000" points="328.7305,-34.5473 337.3241,-28.3506 326.7418,-27.8357 328.7305,-34.5473"/>
</g>
</g>
</svg>